<?xml version="1.0" encoding="UTF-8"?><svg id="Layer_1" xmlns="http://www.w3.org/2000/svg" viewBox="0 0 199.85 132.75"><defs><style>.cls-1{letter-spacing:.01em;}.cls-2,.cls-3{fill:#2c449c;}.cls-4{letter-spacing:-.02em;}.cls-5{letter-spacing:0em;}.cls-6{fill:#df2b30;}.cls-7{letter-spacing:-.01em;}.cls-3{font-family:Anton-Regular, Anton;font-size:20px;}.cls-8{letter-spacing:0em;}</style></defs><polygon class="cls-2" points="99.93 24.07 93.09 30.91 91.28 32.72 89.47 34.53 75.86 20.92 40.83 55.94 35.71 61.06 20.92 75.85 0 75.85 14.79 61.06 65.4 10.46 75.86 0 96.31 20.45 98.12 22.26 99.93 24.07"/><polygon class="cls-6" points="171.69 75.85 130.79 75.85 99.93 44.99 101.74 43.18 103.55 41.37 110.39 34.53 112.2 36.34 114.01 38.15 136.92 61.06 156.9 61.06 171.69 75.85"/><polygon class="cls-2" points="199.85 75.85 178.93 75.85 124 20.92 112.2 32.72 110.39 34.53 99.93 24.07 101.74 22.26 113.54 10.46 124 0 185.06 61.06 199.85 75.85"/><polygon class="cls-6" points="99.93 44.99 96.31 48.61 83.85 61.06 69.06 75.85 28.16 75.85 42.95 61.06 62.93 61.06 85.85 38.15 89.47 34.53 93.09 38.15 96.31 41.37 99.93 44.99"/><g id="BOTTOM"><polygon class="cls-6" points="74.7 119.69 74.7 132.75 22.72 132.75 22.72 119.69 37.32 119.69 37.32 104.84 60.11 104.84 60.11 119.69 74.7 119.69"/><polygon class="cls-6" points="177.13 119.69 177.13 132.75 125.15 132.75 125.15 119.69 139.74 119.69 139.74 104.84 162.53 104.84 162.53 119.69 177.13 119.69"/></g><text class="cls-3" transform="translate(.08 100.52)"><tspan class="cls-1" x="0" y="0">GR</tspan><tspan class="cls-7" x="19.63" y="0">A</tspan><tspan class="cls-5" x="29.11" y="0">VILLE ENTERPRISES </tspan><tspan class="cls-4" x="174.19" y="0">L</tspan><tspan class="cls-8" x="181.71" y="0">TD</tspan></text></svg>